<svg xmlns="http://www.w3.org/2000/svg" viewBox="0 0 235.55 188.8"><defs><clipPath id="a"><path d="M425.08 370.12h2.2c4.93 0 8.9 3.97 8.9 8.9v182.2c0 4.93-3.97 8.9-8.9 8.9h-2.2a8.88 8.88 0 01-8.9-8.9v-182.2c0-4.93 3.97-8.9 8.9-8.9z" fill="#303030"/></clipPath></defs><g data-name="Group 42"><path d="M11.66 50.09h2.883c6.461 0 11.663 2.753 11.663 6.173v126.37c0 3.42-5.202 6.173-11.663 6.173H11.66c-6.461 0-11.663-2.754-11.663-6.173V56.263c0-3.42 5.201-6.173 11.663-6.173z" fill="#262626"/><g transform="translate(-416.18 -351.468)" clip-path="url(#a)" fill="#303030" data-name="Group 41"><path d="M527.048 406.879a55.409 55.409 0 01-55.409 55.409 55.409 55.409 0 01-55.409-55.409 55.409 55.409 0 0155.409-55.409 55.409 55.409 0 0155.409 55.409z"/></g><g data-name="Group 41"><path d="M110.868 55.411a55.409 55.409 0 01-55.409 55.409A55.409 55.409 0 01.05 55.411 55.409 55.409 0 0155.459.002a55.409 55.409 0 0155.409 55.409z" fill="#303030"/><path d="M78.47 50.753H59.631V31.914a4.433 4.433 0 00-4.433-4.433 4.433 4.433 0 00-4.433 4.433v18.839H31.926a4.433 4.433 0 00-4.433 4.433 4.433 4.433 0 004.433 4.433h18.839v18.839a4.433 4.433 0 004.433 4.433 4.433 4.433 0 004.433-4.433V59.619H78.47a4.433 4.433 0 004.433-4.433 4.433 4.433 0 00-4.433-4.433z" fill="#7bf46f" data-name="Path 1106"/></g><g aria-label="roto" style="line-height:1.25" font-size="102.69" font-family="Oxygen" fill="#262626" stroke-width="1.203"><path d="M80.162 130.872q2.257 0 4.112.301l-.301 7.722q-2.307-.401-4.011-.401-7.02 0-11.433 4.914-4.362 4.863-4.362 12.084v30.887h-8.374q-.05-50.643-.05-55.005h6.97l.802 9.877q2.858-4.663 7.27-7.52 4.413-2.859 9.377-2.859zM98.013 159.002q0 9.777 4.312 15.694 4.362 5.866 12.686 5.866 8.223 0 12.385-5.866 4.211-5.867 4.211-15.795 0-10.078-4.161-15.844-4.112-5.817-12.586-5.817-8.223 0-12.535 5.917-4.312 5.917-4.312 15.845zm42.269-.15q0 12.785-6.82 20.758-6.819 7.922-18.853 7.922-11.582 0-18.452-8.023-6.819-8.022-6.819-20.608 0-12.836 6.87-20.758 6.869-7.923 18.853-7.923 11.783 0 18.502 7.973 6.719 7.922 6.719 20.658zM169.665 187.382q-8.123 0-11.533-3.961-3.41-3.962-3.61-12.787v-33.043h-8.173l.351-5.515 7.772-.702 2.858-12.586 5.516-.2v12.786h15.293v6.217h-15.293v31.54q0 6.267 1.905 8.824 1.905 2.557 6.518 2.557 1.655 0 7.17-.802l.352 6.619q-5.967 1.053-9.126 1.053zM193.282 159.002q0 9.777 4.312 15.694 4.362 5.866 12.686 5.866 8.223 0 12.385-5.866 4.212-5.867 4.212-15.795 0-10.078-4.162-15.844-4.112-5.817-12.586-5.817-8.223 0-12.535 5.917-4.312 5.917-4.312 15.845zm42.269-.15q0 12.785-6.82 20.758-6.819 7.922-18.852 7.922-11.583 0-18.453-8.023-6.819-8.022-6.819-20.608 0-12.836 6.87-20.758 6.869-7.923 18.853-7.923 11.783 0 18.502 7.973 6.719 7.922 6.719 20.658z"/></g></g></svg>